# xmcd CD database file
#
# Track frame offsets:
#	150
#	22304
#	25435
#	47909
#	74332
#	93167
#	112821
#	135911
#	156223
#	177435
#	197420
#	215974
#	235211
#	258498
#
# Disc length: 3627 seconds
#
# Revision: 0
# Processed by: cddbd v1.5.1PL0 Copyright (c) Steve Scherf et al.
# Submitted via: CDex 1.51
#
DISCID=c70e290e
DTITLE=Darrel Grant - Spirit
DYEAR=2002
DGENRE=Jazz
TTITLE0=A Child Is Born
TTITLE1=Invocation
TTITLE2=People Get Ready
TTITLE3=Morning Star-Evening Rose
TTITLE4=Star Eyes
TTITLE5=Shine
TTITLE6=Balm In Gilead
TTITLE7=Foresight
TTITLE8=The Water is Wide
TTITLE9=Family
TTITLE10=Lullaby
TTITLE11=Shower The People
TTITLE12=Another Time
TTITLE13=Peace
EXTD=YEAR: 2002
EXTT0=
EXTT1=
EXTT2=
EXTT3=
EXTT4=
EXTT5=
EXTT6=
EXTT7=
EXTT8=
EXTT9=
EXTT10=
EXTT11=
EXTT12=
EXTT13=
PLAYORDER=
